<svg width="23.397949" height="32.000000" viewBox="0 0 23.3979 32" fill="none" xmlns="http://www.w3.org/2000/svg" xmlns:xlink="http://www.w3.org/1999/xlink">
	<desc>
			Created with Pixso.
	</desc>
	<defs/>
	<path id="Vector" d="M11.6989 0C5.24805 0 0 5.34241 0 11.9091C0 15.5823 1.85773 20.0405 5.52185 25.1602C8.20319 28.907 10.8455 31.5791 10.9567 31.691C11.161 31.8969 11.4299 32 11.6991 32C11.9604 32 12.222 31.9026 12.4247 31.7073C12.5362 31.6 15.1852 29.036 17.8716 25.3411C21.5386 20.2972 23.3979 15.7781 23.3979 11.9091C23.3978 5.34241 18.1496 0 11.6989 0ZM11.6989 17.0504C8.54517 17.0504 5.97943 14.4846 5.97943 11.3309C5.97943 8.17725 8.54523 5.61145 11.6989 5.61145C14.8526 5.61145 17.4183 8.17725 17.4183 11.3309C17.4183 14.4846 14.8525 17.0504 11.6989 17.0504Z" fill="#FFFFFF" fill-opacity="1.000000" fill-rule="nonzero"/>
</svg>
