<svg width="216.000000" height="49.000000" viewBox="0 0 216 49" fill="none" xmlns="http://www.w3.org/2000/svg" xmlns:xlink="http://www.w3.org/1999/xlink">
	<desc>
			Created with Pixso.
	</desc>
	<defs/>
	<path id="Vector 1" d="M6.17505 8.69165C3.22968 12.0842 1.68976 15.7024 1.30988 17.0874C1.14819 17.677 1.43158 17.6826 1.64941 17.687L1.66052 17.6873C5.83374 17.7725 9.55792 17.6841 12.8812 17.4636C24.688 16.6807 31.4343 14.2312 35.2786 11.9868C37.8159 10.5056 39.0891 9.11353 39.7186 8.34912C39.8042 8.24512 39.8779 8.15283 39.9412 8.07349L39.9414 8.07324L39.9416 8.073C40.0038 7.99512 40.0561 7.92944 40.0999 7.87793C40.7097 7.15771 40.4799 5.12769 38.8726 3.38135C37.7073 2.11548 35.8179 0.998779 32.9993 0.638672C31.709 0.473877 30.4062 0.348633 29.1423 0.254639C33.4067 1.95947 32.5792 3.78589 29.7559 5.32153C26.8452 6.90479 21.8133 8.17896 18.0532 8.69165C12.0221 9.51416 7.62146 9.03442 6.17505 8.69165Z" fill="#02A8D8" fill-opacity="1.000000" fill-rule="nonzero"/>
	<path id="Vector 1" d="M25.4605 0.424561C22.6273 0.706055 20.6099 0.624268 19.9379 0.424561C19.5872 0.354004 19.7917 0.138184 19.9379 0.0388184C14.4327 1.64941 11.8876 3.36572 11.3032 4.02271C14.5426 4.82544 18.0413 4.53418 20.6315 4.02271C21.9105 3.77002 22.968 3.46362 23.6635 3.20874C27.7397 2.13794 28.0465 0.16748 25.4605 0.424561Z" fill="#02A8D8" fill-opacity="1.000000" fill-rule="nonzero"/>
	<path id="Vector 1" d="M19.9379 0.424561C20.6099 0.624268 22.6273 0.706055 25.4605 0.424561C28.0465 0.16748 27.7397 2.13794 23.6635 3.20874C22.968 3.46362 21.9105 3.77002 20.6315 4.02271C22.022 4.06055 25.7936 4.37329 29.7559 5.32153C32.5792 3.78589 33.4067 1.95947 29.1423 0.254639C25.1512 -0.041748 21.5468 -0.026123 19.9379 0.0388184C19.7917 0.138184 19.5872 0.354004 19.9379 0.424561Z" fill="#003851" fill-opacity="1.000000" fill-rule="nonzero"/>
	<path id="Vector 1" d="M38.8726 3.38135C40.4799 5.12769 40.7097 7.15771 40.0999 7.87793C40.0561 7.92944 40.0038 7.99512 39.9416 8.073L39.9414 8.07324L39.9412 8.07349C39.8779 8.15283 39.8042 8.24512 39.7186 8.34912C40.533 8.63452 42.8408 9.64258 45.5576 11.3904C45.9998 9.12329 44.5635 7.1167 42.6313 5.58838C42.4 5.40894 42.1774 5.24365 41.9661 5.09351C40.9626 4.39062 39.8754 3.81128 38.8726 3.38135Z" fill="#017AAD" fill-opacity="1.000000" fill-rule="nonzero"/>
	<path id="Vector 1" d="M13.3195 24.7319C8.09125 25.1165 3.58783 24.9863 0.520935 24.8835C0.285767 24.8835 0.0404663 24.8269 0.0045166 24.7319C0.993896 32.8008 2.16364 35.0771 2.62482 35.207C6.62469 35.397 10.6384 35.2969 14.5467 34.9597C22.662 34.2593 30.3229 32.5369 36.462 30.2686C40.4904 28.78 43.8636 27.0566 46.28 25.2329C48.3965 23.6355 49.7789 21.9612 50.2247 20.3C51.8049 14.4126 46.1832 8.34106 42.6313 5.58838C44.5635 7.1167 45.9998 9.12329 45.5576 11.3904C45.3195 12.6113 44.5365 13.9077 42.9927 15.2458C42.0683 16.0471 40.8711 16.8633 39.3548 17.6873C36.8147 19.0671 34.2088 20.1924 31.5968 21.1084C25.2552 23.3323 18.8777 24.323 13.3195 24.7319Z" fill="#FFDE15" fill-opacity="1.000000" fill-rule="nonzero"/>
	<path id="Vector 1" d="M50.2247 20.3C49.7789 21.9612 48.3965 23.6355 46.28 25.2329C48.1384 27.0203 48.8952 29.5444 49.0413 30.583C50.5869 28.9861 51.4721 27.3716 51.8228 25.8687C52.3478 23.6184 51.6744 21.6179 50.2247 20.3Z" fill="#FBDC15" fill-opacity="1.000000" fill-rule="nonzero"/>
	<path id="Vector 1" d="M17.308 40.7964C14.0514 41.0408 10.5216 41.1826 6.70105 41.2039C6.49017 41.2051 6.27808 41.1504 6.13129 41.0659C10.6195 45.9509 13.6117 47.3054 14.5467 47.3723C16.9462 47.2869 19.193 47.1494 21.2966 46.9644C25.2032 46.6211 28.6161 46.114 31.5968 45.4734C49.5571 41.6128 51.8228 32.8979 51.8228 25.8687C51.4721 27.3716 50.5869 28.9861 49.0413 30.583C47.6736 31.9963 45.7887 33.396 43.2995 34.6926C40.2275 36.2932 36.2352 37.7368 31.1584 38.856C27.2198 39.7241 22.6285 40.3972 17.308 40.7964Z" fill="#DFC212" fill-opacity="1.000000" fill-rule="nonzero"/>
	<linearGradient id="paint_linear_4_3807_0" x1="10.519319" y1="20.985516" x2="41.551300" y2="43.945408" gradientUnits="userSpaceOnUse">
		<stop offset="0.476370" stop-color="#BE8C19"/>
		<stop offset="1.000000" stop-color="#E6BD1B"/>
	</linearGradient>
	<path id="Vector 1" d="M21.2966 46.9644C23.1229 47.2146 26.6352 47.9719 26.0742 49C26.1946 48.9883 26.355 48.9768 26.5458 48.9634C28.438 48.8289 33.3089 48.4824 31.5968 45.4734C28.6161 46.114 25.2032 46.6211 21.2966 46.9644Z" fill="url(#paint_linear_4_3807_0)" fill-opacity="1.000000" fill-rule="nonzero"/>
	<path id="Vector 1" d="M6.70105 41.2039C10.5216 41.1826 14.0514 41.0408 17.308 40.7964C6.30377 39.457 5.39301 40.6404 6.13129 41.0659C6.27808 41.1504 6.49017 41.2051 6.70105 41.2039Z" fill="#C8921E" fill-opacity="1.000000" fill-rule="nonzero"/>
	<path id="Vector 1" d="M0.520935 24.8835C3.58783 24.9863 8.09125 25.1165 13.3195 24.7319C5.04425 23.9595 1.33911 24.197 0.520935 24.4124C0.0985107 24.5393 -0.0265503 24.6499 0.0045166 24.7319C0.0404663 24.8269 0.285767 24.8835 0.520935 24.8835Z" fill="#C8921E" fill-opacity="1.000000" fill-rule="nonzero"/>
	<linearGradient id="paint_linear_4_38010_1" x1="10.519319" y1="20.985516" x2="41.551300" y2="43.945408" gradientUnits="userSpaceOnUse">
		<stop offset="0.476370" stop-color="#BE8C19"/>
		<stop offset="1.000000" stop-color="#E6BD1B"/>
	</linearGradient>
	<path id="Vector 1" d="M14.5467 34.9597C17.9947 35.1758 26.1443 36.2581 31.1584 38.856C36.2352 37.7368 40.2275 36.2932 43.2995 34.6926C40.8801 32.3965 37.733 30.7866 36.462 30.2686C30.3229 32.5369 22.662 34.2593 14.5467 34.9597Z" fill="url(#paint_linear_4_38010_1)" fill-opacity="1.000000" fill-rule="nonzero"/>
	<linearGradient id="paint_linear_4_38011_2" x1="7.714169" y1="7.192448" x2="43.918152" y2="28.139065" gradientUnits="userSpaceOnUse">
		<stop stop-color="#032D47"/>
		<stop offset="1.000000" stop-color="#0191CB"/>
	</linearGradient>
	<path id="Vector 1" d="M31.5968 21.1084C34.2088 20.1924 36.8147 19.0671 39.3548 17.6873C40.8711 16.8633 42.0683 16.0471 42.9927 15.2458C40.4681 13.8071 36.798 12.4736 35.2786 11.9868C31.4343 14.2312 24.688 16.6807 12.8812 17.4636C21.5421 18.1758 28.967 20.1902 31.5968 21.1084Z" fill="url(#paint_linear_4_38011_2)" fill-opacity="1.000000" fill-rule="nonzero"/>
	<path id="Vector 1" d="M41.9661 5.09351C42.1928 5.2522 42.4152 5.41724 42.6313 5.58838C42.4 5.40894 42.1774 5.24365 41.9661 5.09351Z" fill="#D9D9D9" fill-opacity="1.000000" fill-rule="evenodd"/>
	<path id="Vector 1" d="M6.17505 8.69165C6.55493 8.27759 9.4624 7.698 18.0532 8.69165C12.0221 9.51416 7.62146 9.03442 6.17505 8.69165Z" fill="#003851" fill-opacity="1.000000" fill-rule="nonzero"/>
	<path id="Urist Company" d="M94.5928 17.4497C94.5928 18.1829 93.9519 18.7776 93.1829 18.7776C92.4087 18.7776 91.773 18.1829 91.773 17.4497C91.773 16.7217 92.4087 16.1167 93.1829 16.1167C93.9519 16.1167 94.5928 16.7217 94.5928 17.4497ZM128.464 16.5166C131.694 16.5166 134.253 18.429 134.77 21.6948L132.448 21.6948C132.063 19.7158 130.433 18.6238 128.485 18.6238C125.855 18.6238 123.886 20.6592 123.886 24.366C123.886 28.0984 125.86 30.1082 128.48 30.1082C130.412 30.1082 132.053 29.0315 132.448 27.0781L134.77 27.0833C134.273 30.1082 131.817 32.2102 128.464 32.2102C124.496 32.2102 121.594 29.2468 121.594 24.366C121.594 19.48 124.511 16.5166 128.464 16.5166ZM78.4998 26.5859L78.4998 16.7268L80.812 16.7268L80.812 26.7705C80.812 29.98 78.4023 32.2512 74.7417 32.2512C71.0811 32.2512 68.6765 29.98 68.6765 26.7705L68.6765 16.7268L70.9836 16.7268L70.9836 26.5859C70.9836 28.6572 72.4192 30.1492 74.7417 30.1492C77.0693 30.1492 78.4998 28.6572 78.4998 26.5859ZM111.535 20.5464L113.883 20.5464L113.883 22.3357L111.535 22.3357L111.535 28.6367C111.535 29.9287 112.186 30.1646 112.909 30.1646C113.268 30.1646 113.54 30.0979 113.688 30.0671L114.093 31.9128C113.832 32.0051 113.355 32.1436 112.648 32.1487C110.889 32.1846 109.3 31.1797 109.305 29.0981L109.305 22.3357L107.628 22.3357L107.628 20.5464L109.305 20.5464L109.305 17.8035L111.535 17.8035L111.535 20.5464ZM86.2163 32L83.9861 32L83.9861 20.5464L86.1445 20.5464L86.1445 22.3665L86.2624 22.3665C86.6777 21.136 87.8261 20.3721 89.1694 20.3721C89.4565 20.3721 89.8923 20.3977 90.1179 20.4285L90.1179 22.5613C89.9385 22.5049 89.4155 22.4229 88.9541 22.4229C87.375 22.4229 86.2163 23.5046 86.2163 25.0068L86.2163 32ZM101.533 20.3977C104.009 20.3977 105.404 21.5615 105.87 23.3406L103.845 23.6995C103.584 22.9304 102.943 22.1614 101.558 22.1614C100.292 22.1614 99.3334 22.792 99.3436 23.6687C99.3334 24.448 99.8819 24.8684 101.138 25.1709L102.958 25.5862C105.06 26.0732 106.091 27.073 106.091 28.688C106.091 30.7644 104.173 32.2307 101.41 32.2307C98.836 32.2307 97.1493 31.0925 96.775 29.0623L98.9335 28.7341C99.2001 29.8621 100.056 30.4363 101.394 30.4363C102.856 30.4363 103.804 29.739 103.804 28.8521C103.804 28.1394 103.286 27.6472 102.184 27.4011L100.246 26.9756C98.0978 26.4988 97.1134 25.417 97.1134 23.7917C97.1134 21.7615 98.9488 20.3977 101.533 20.3977ZM147.518 26.3245C147.518 29.8672 145.406 32.2307 142.176 32.2307C138.951 32.2307 136.838 29.8672 136.838 26.3245C136.838 22.7612 138.951 20.3977 142.176 20.3977C145.406 20.3977 147.518 22.7612 147.518 26.3245ZM152.229 32L149.999 32L149.999 20.5464L152.142 20.5464L152.142 22.4075L152.28 22.4075C152.762 21.1514 153.885 20.3977 155.398 20.3977C156.93 20.3977 157.982 21.1565 158.479 22.4075L158.597 22.4075C159.15 21.1873 160.391 20.3977 162.037 20.3977C164.108 20.3977 165.569 21.7 165.569 24.3198L165.569 32L163.344 32L163.344 24.53C163.344 22.9766 162.37 22.3203 161.196 22.3203C159.74 22.3203 158.899 23.3201 158.899 24.6992L158.899 32L156.674 32L156.674 24.3865C156.674 23.1406 155.818 22.3203 154.577 22.3203C153.311 22.3203 152.229 23.3918 152.229 24.9402L152.229 32ZM170.783 36.2964L168.553 36.2964L168.553 20.5464L170.732 20.5464L170.732 22.4023L170.916 22.4023C171.316 21.6948 172.08 20.3977 174.208 20.3977C176.976 20.3977 179.017 22.5818 179.017 26.2937C179.017 30.0005 177.002 32.2256 174.228 32.2256C172.142 32.2256 171.321 30.949 170.916 30.2158L170.783 30.2158L170.783 36.2964ZM188.235 30.4363C187.81 31.2925 186.743 32.2512 184.851 32.2512C182.672 32.2512 180.981 31.0156 180.981 28.7649C180.981 26.1604 183.201 25.5964 185.369 25.3401C187.43 25.1042 188.266 25.1145 188.266 24.3044L188.266 24.2532C188.266 22.9561 187.528 22.2024 186.087 22.2024C184.59 22.2024 183.754 22.9817 183.426 23.7969L181.329 23.3201C182.073 21.2334 183.985 20.3977 186.056 20.3977C187.876 20.3977 190.501 21.0591 190.501 24.3916L190.501 32L188.322 32L188.322 30.4363L188.235 30.4363ZM198.369 22.3254C196.816 22.3254 195.698 23.3713 195.698 25.1965L195.698 32L193.468 32L193.468 20.5464L195.611 20.5464L195.611 22.4075L195.749 22.4075C196.283 21.1924 197.405 20.3977 199.128 20.3977C201.471 20.3977 203.03 21.8794 203.03 24.7146L203.03 32L200.799 32L200.799 24.9812C200.799 23.3201 199.882 22.3254 198.369 22.3254ZM94.2852 32L92.055 32L92.055 20.5464L94.2852 20.5464L94.2852 32ZM210.674 33.5278C210.008 35.3325 208.849 36.2964 207.004 36.2964C206.332 36.2964 205.753 36.1682 205.486 36.0503L206.019 34.22C207.245 34.5583 208.039 34.4302 208.608 32.9075L208.885 32.1487L204.691 20.5464L207.08 20.5464L209.982 29.4365L210.1 29.4365L213.002 20.5464L215.396 20.5464L210.674 33.5278ZM139.089 26.3193C139.089 28.5188 140.074 30.3594 142.186 30.3594C144.283 30.3594 145.267 28.5188 145.267 26.3193C145.267 24.125 144.283 22.2588 142.186 22.2588C140.074 22.2588 139.089 24.125 139.089 26.3193ZM173.731 22.2896C171.783 22.2896 170.742 23.8789 170.742 26.2732C170.742 28.6829 171.814 30.3235 173.731 30.3235C175.72 30.3235 176.766 28.5701 176.766 26.2732C176.766 23.9968 175.751 22.2896 173.731 22.2896ZM183.165 28.7957C183.165 29.8979 184.072 30.4619 185.333 30.4619C187.189 30.4619 188.271 29.2263 188.271 27.8677L188.271 26.3911C187.953 26.7141 186.236 26.9089 185.513 27.0012C184.221 27.1755 183.165 27.6011 183.165 28.7957Z" fill="#01476A" fill-opacity="1.000000" fill-rule="evenodd"/>
</svg>
