<svg width="167.000000" height="44.000000" viewBox="0 0 167 44" fill="none" xmlns="http://www.w3.org/2000/svg" xmlns:xlink="http://www.w3.org/1999/xlink">
	<desc>
			Created with Pixso.
	</desc>
	<defs>
		<clipPath id="clip4_430">
			<rect id="icon.svg (16) 1" width="44.000000" height="44.000000" fill="white" fill-opacity="0"/>
		</clipPath>
		<linearGradient id="paint_linear_4_431_0" x1="21.119631" y1="22.968275" x2="43.407310" y2="45.255959" gradientUnits="userSpaceOnUse">
			<stop stop-color="#FFFFFF"/>
			<stop offset="1.000000" stop-color="#C3C3C3"/>
		</linearGradient>
		<linearGradient id="paint_linear_4_432_0" x1="27.271648" y1="22.691780" x2="8.966652" y2="20.636799" gradientUnits="userSpaceOnUse">
			<stop stop-color="#C3C3C3" stop-opacity="0.000000"/>
			<stop offset="0.267000" stop-color="#A4A4A4" stop-opacity="0.266667"/>
			<stop offset="0.542000" stop-color="#8B8B8B" stop-opacity="0.541176"/>
			<stop offset="0.794000" stop-color="#7C7C7C" stop-opacity="0.792157"/>
			<stop offset="1.000000" stop-color="#777777"/>
		</linearGradient>
		<linearGradient id="paint_linear_4_433_0" x1="20.364710" y1="21.741659" x2="20.364710" y2="24.618851" gradientUnits="userSpaceOnUse">
			<stop stop-color="#F18D00"/>
			<stop offset="1.000000" stop-color="#ED7103"/>
		</linearGradient>
		<linearGradient id="paint_linear_4_434_0" x1="23.414780" y1="20.250278" x2="24.262850" y2="22.921280" gradientUnits="userSpaceOnUse">
			<stop stop-color="#A7F3CE"/>
			<stop offset="1.000000" stop-color="#61DB99"/>
		</linearGradient>
		<linearGradient id="paint_linear_4_435_0" x1="16.741161" y1="22.369146" x2="17.589222" y2="25.040148" gradientUnits="userSpaceOnUse">
			<stop stop-color="#A7F3CE"/>
			<stop offset="1.000000" stop-color="#61DB99"/>
		</linearGradient>
		<linearGradient id="paint_linear_4_436_0" x1="30.177784" y1="21.026941" x2="34.133385" y2="23.697943" gradientUnits="userSpaceOnUse">
			<stop stop-color="#A7F3CE"/>
			<stop offset="1.000000" stop-color="#61DB99"/>
		</linearGradient>
		<linearGradient id="paint_linear_4_437_0" x1="7.036941" y1="21.026976" x2="10.992543" y2="23.697973" gradientUnits="userSpaceOnUse">
			<stop stop-color="#A7F3CE"/>
			<stop offset="1.000000" stop-color="#61DB99"/>
		</linearGradient>
		<linearGradient id="paint_linear_4_438_0" x1="31.314856" y1="16.460136" x2="34.360283" y2="19.131136" gradientUnits="userSpaceOnUse">
			<stop stop-color="#A7F3CE"/>
			<stop offset="1.000000" stop-color="#61DB99"/>
		</linearGradient>
		<linearGradient id="paint_linear_4_439_0" x1="6.840423" y1="25.707932" x2="9.884985" y2="28.378933" gradientUnits="userSpaceOnUse">
			<stop stop-color="#A7F3CE"/>
			<stop offset="1.000000" stop-color="#61DB99"/>
		</linearGradient>
		<linearGradient id="paint_linear_4_440_0" x1="23.203381" y1="25.706257" x2="26.247078" y2="28.377262" gradientUnits="userSpaceOnUse">
			<stop stop-color="#A7F3CE"/>
			<stop offset="1.000000" stop-color="#61DB99"/>
		</linearGradient>
		<linearGradient id="paint_linear_4_441_0" x1="14.951851" y1="16.459654" x2="17.997276" y2="19.130653" gradientUnits="userSpaceOnUse">
			<stop stop-color="#A7F3CE"/>
			<stop offset="1.000000" stop-color="#61DB99"/>
		</linearGradient>
		<linearGradient id="paint_linear_4_442_0" x1="27.098497" y1="26.161215" x2="19.646265" y2="17.975662" gradientUnits="userSpaceOnUse">
			<stop stop-color="#C3C3C3" stop-opacity="0.000000"/>
			<stop offset="0.267000" stop-color="#A4A4A4" stop-opacity="0.266667"/>
			<stop offset="0.542000" stop-color="#8B8B8B" stop-opacity="0.541176"/>
			<stop offset="0.794000" stop-color="#7C7C7C" stop-opacity="0.792157"/>
			<stop offset="1.000000" stop-color="#777777"/>
		</linearGradient>
		<linearGradient id="paint_linear_4_443_0" x1="26.208248" y1="21.772833" x2="0.042613" y2="24.361881" gradientUnits="userSpaceOnUse">
			<stop stop-color="#FFB92D"/>
			<stop offset="1.000000" stop-color="#F59500"/>
		</linearGradient>
		<linearGradient id="paint_linear_4_444_0" x1="22.803970" y1="27.143082" x2="25.393017" y2="36.910870" gradientUnits="userSpaceOnUse">
			<stop stop-color="#FFB92D"/>
			<stop offset="1.000000" stop-color="#F59500"/>
		</linearGradient>
		<linearGradient id="paint_linear_4_445_0" x1="20.364632" y1="21.353352" x2="20.364632" y2="24.024353" gradientUnits="userSpaceOnUse">
			<stop stop-color="#A7F3CE"/>
			<stop offset="1.000000" stop-color="#61DB99"/>
		</linearGradient>
		<linearGradient id="paint_linear_4_446_0" x1="26.573666" y1="35.904953" x2="16.408157" y2="25.739445" gradientUnits="userSpaceOnUse">
			<stop stop-color="#C3C3C3" stop-opacity="0.000000"/>
			<stop offset="0.267000" stop-color="#A4A4A4" stop-opacity="0.266667"/>
			<stop offset="0.542000" stop-color="#8B8B8B" stop-opacity="0.541176"/>
			<stop offset="0.794000" stop-color="#7C7C7C" stop-opacity="0.792157"/>
			<stop offset="1.000000" stop-color="#777777"/>
		</linearGradient>
		<linearGradient id="paint_linear_4_448_0" x1="23.988607" y1="29.400883" x2="23.988607" y2="39.657837" gradientUnits="userSpaceOnUse">
			<stop stop-color="#62E1FB"/>
			<stop offset="1.000000" stop-color="#00A2F3"/>
		</linearGradient>
		<linearGradient id="paint_linear_4_449_0" x1="35.079063" y1="29.400797" x2="35.079063" y2="39.657753" gradientUnits="userSpaceOnUse">
			<stop stop-color="#62E1FB"/>
			<stop offset="1.000000" stop-color="#00A2F3"/>
		</linearGradient>
		<linearGradient id="paint_linear_4_450_0" x1="26.165438" y1="28.020802" x2="35.933235" y2="37.788593" gradientUnits="userSpaceOnUse">
			<stop stop-color="#FFB92D"/>
			<stop offset="1.000000" stop-color="#F59500"/>
		</linearGradient>
	</defs>
	<rect id="icon.svg (16) 1" width="44.000000" height="44.000000" fill="#FFFFFF" fill-opacity="0"/>
	<g clip-path="url(#clip4_430)">
		<path id="Vector" d="M37.4239 22.2126C37.4239 23.9844 37.1538 25.6943 36.6511 27.3005C36.5967 27.4797 36.538 27.657 36.475 27.833C36.2765 28.4072 36.046 28.9666 35.7877 29.511C35.571 29.97 35.334 30.417 35.0769 30.8516C34.5646 31.7234 33.9776 32.5452 33.3222 33.3083C32.6371 34.1077 31.8792 34.8433 31.0595 35.5049C28.134 37.8606 24.4144 39.2715 20.365 39.2715C10.9438 39.2715 3.30615 31.6338 3.30615 22.2126C3.30615 12.7915 10.9437 5.15381 20.3649 5.15381C29.7862 5.15381 37.4239 12.7915 37.4239 22.2126Z" fill="url(#paint_linear_4_431_0)" fill-opacity="1.000000" fill-rule="nonzero"/>
		<path id="Vector" d="M20.3649 10.6555C19.6955 10.6555 19.1528 20.3313 19.1528 21.0007C19.1528 21.4272 19.3737 21.8018 19.7068 22.0176L32.1933 34.5042C34.2997 32.4766 35.8857 29.9126 36.7325 27.032C33.9442 24.2639 20.3649 10.6555 20.3649 10.6555Z" fill="url(#paint_linear_4_432_0)" fill-opacity="1.000000" fill-rule="nonzero"/>
		<path id="Vector" d="M21.3292 22.2131C21.3292 22.7456 20.8976 23.177 20.3652 23.177C19.8327 23.177 19.4011 22.7456 19.4011 22.2131C19.4011 21.6807 19.8327 21.249 20.3652 21.249C20.8976 21.249 21.3292 21.6807 21.3292 22.2131Z" fill="url(#paint_linear_4_433_0)" fill-opacity="1.000000" fill-rule="evenodd"/>
		<path id="Vector" d="M20.3649 8.66431C20.2478 8.66431 20.1418 8.71167 20.0651 8.78857C19.9884 8.86523 19.9409 8.97119 19.9409 9.08813L19.9409 12.1963C19.9409 12.2842 19.9676 12.3657 20.0133 12.4333C20.0437 12.4783 20.0826 12.5173 20.1277 12.5479C20.1503 12.563 20.1744 12.5762 20.1998 12.5869C20.2505 12.6082 20.3062 12.6201 20.3647 12.6201C20.4817 12.6201 20.5877 12.5728 20.6644 12.4961C20.7411 12.4192 20.7886 12.3135 20.7886 12.1963L20.7886 9.08813C20.7887 8.854 20.5989 8.66431 20.3649 8.66431Z" fill="url(#paint_linear_4_434_0)" fill-opacity="1.000000" fill-rule="nonzero"/>
		<path id="Vector" d="M20.3649 31.8057C20.1308 31.8057 19.941 31.9956 19.941 32.2295L19.941 35.3376C19.941 35.3779 19.9484 35.4163 19.959 35.4531C20.0095 35.6306 20.1712 35.7615 20.3648 35.7615C20.4233 35.7615 20.4791 35.7495 20.5297 35.728C20.6818 35.6638 20.7886 35.5132 20.7886 35.3376L20.7886 32.2295C20.7887 31.9954 20.5989 31.8057 20.3649 31.8057Z" fill="url(#paint_linear_4_435_0)" fill-opacity="1.000000" fill-rule="nonzero"/>
		<path id="Vector" d="M33.4896 21.7891L30.3815 21.7891C30.1474 21.7891 29.9576 21.9788 29.9576 22.2129C29.9576 22.447 30.1474 22.6367 30.3815 22.6367L33.4896 22.6367C33.7237 22.6367 33.9134 22.447 33.9134 22.2129C33.9135 21.9788 33.7237 21.7891 33.4896 21.7891Z" fill="url(#paint_linear_4_436_0)" fill-opacity="1.000000" fill-rule="nonzero"/>
		<path id="Vector" d="M10.7721 22.2129C10.7721 22.1252 10.7455 22.0435 10.6998 21.9758C10.6693 21.9307 10.6304 21.8918 10.5853 21.8613C10.5177 21.8157 10.4361 21.7891 10.3483 21.7891L7.2401 21.7891C7.12305 21.7891 7.01709 21.8364 6.94034 21.9133C6.86368 21.99 6.81616 22.0959 6.81616 22.2129C6.81616 22.447 7.00591 22.6367 7.24001 22.6367L10.3481 22.6367C10.4651 22.6367 10.5711 22.5894 10.6479 22.5127C10.7246 22.4358 10.7721 22.3301 10.7721 22.2129Z" fill="url(#paint_linear_4_437_0)" fill-opacity="1.000000" fill-rule="nonzero"/>
		<path id="Vector" d="M27.7474 15.4297L29.9452 13.2319C30.1107 13.0664 30.1107 12.7981 29.9452 12.6326C29.7797 12.4668 29.5113 12.467 29.3458 12.6326L27.148 14.8303C26.9824 14.9958 26.9824 15.2642 27.148 15.4297C27.3135 15.5952 27.5819 15.5952 27.7474 15.4297Z" fill="url(#paint_linear_4_438_0)" fill-opacity="1.000000" fill-rule="nonzero"/>
		<path id="Vector" d="M13.5816 28.9958C13.4161 28.8306 13.1477 28.8306 12.9822 28.9958L10.7845 31.1938C10.6417 31.3364 10.6228 31.5554 10.7263 31.7192C10.7394 31.7402 10.7551 31.7595 10.7722 31.7783C10.7766 31.7832 10.7797 31.7886 10.7845 31.7932C10.8652 31.874 10.9705 31.9148 11.0764 31.9167C11.079 31.9167 11.0815 31.9175 11.0841 31.9175C11.1926 31.9175 11.301 31.876 11.3839 31.7932L13.5816 29.5955C13.6437 29.5334 13.6825 29.457 13.698 29.3767C13.7031 29.3501 13.7057 29.323 13.7057 29.2959C13.7058 29.1873 13.6645 29.0786 13.5816 28.9958Z" fill="url(#paint_linear_4_439_0)" fill-opacity="1.000000" fill-rule="nonzero"/>
		<path id="Vector" d="M29.9452 31.1936L27.7475 28.9958C27.6957 28.9441 27.6335 28.9106 27.568 28.8911C27.505 28.8726 27.439 28.8674 27.3746 28.8787C27.2916 28.8933 27.2121 28.9316 27.1481 28.9958C26.9825 29.1614 26.9825 29.4297 27.1481 29.5952L29.3459 31.793C29.3707 31.8179 29.3983 31.8376 29.4271 31.855C29.59 31.9534 29.8046 31.9336 29.9454 31.793C30.0128 31.7256 30.0514 31.6406 30.0637 31.553C30.0817 31.4258 30.0433 31.2917 29.9452 31.1936Z" fill="url(#paint_linear_4_440_0)" fill-opacity="1.000000" fill-rule="nonzero"/>
		<path id="Vector" d="M11.3839 12.6326C11.3011 12.5498 11.1926 12.5083 11.0841 12.5083C11.0571 12.5083 11.0299 12.511 11.0032 12.5161C10.923 12.5315 10.8465 12.5703 10.7845 12.6323C10.7017 12.7151 10.6603 12.8237 10.6603 12.9321C10.6603 12.9592 10.6629 12.9863 10.668 13.0132C10.6836 13.0933 10.7222 13.1697 10.7844 13.2317L12.9821 15.4297C12.9859 15.4333 12.9904 15.4358 12.9943 15.4395C13.033 15.4753 13.0761 15.5039 13.1224 15.5227C13.1734 15.5435 13.2277 15.5537 13.2819 15.5537C13.3903 15.5537 13.4989 15.5122 13.5816 15.4294C13.6437 15.3674 13.6825 15.2908 13.698 15.2107C13.7032 15.1841 13.7057 15.157 13.7057 15.1299C13.7057 15.0215 13.6643 14.9128 13.5816 14.8301L11.3839 12.6326Z" fill="url(#paint_linear_4_441_0)" fill-opacity="1.000000" fill-rule="nonzero"/>
		<path id="Vector" d="M35.7877 29.511C35.5711 29.9702 35.3341 30.4172 35.0769 30.8516C34.5647 31.7236 33.9776 32.5454 33.3223 33.3086C32.6371 34.1079 31.8792 34.8435 31.0595 35.5051L19.0585 23.5193C18.336 22.7979 18.336 21.6279 19.0585 20.9065C19.0905 20.8745 19.1225 20.8445 19.1567 20.8157C19.8482 20.2139 20.8814 20.2139 21.5731 20.8157C21.6073 20.8445 21.6392 20.8743 21.6712 20.9065C21.7032 20.9385 21.7352 20.9727 21.763 21.0068L21.764 21.0068C21.7853 21.0078 21.8067 21.009 21.8302 21.01C21.8707 21.0132 21.9156 21.0154 21.9636 21.0186C22.2154 21.0344 22.5602 21.0613 22.9604 21.0974C23.08 21.1082 23.2048 21.1199 23.334 21.1328C23.4268 21.1423 23.5219 21.1509 23.619 21.1616C23.7012 21.1699 23.7845 21.1787 23.8697 21.187C23.9316 21.1934 23.9946 21.2009 24.0576 21.2073C24.158 21.218 24.2583 21.2297 24.3597 21.2417C24.8421 21.2971 25.3416 21.3601 25.8186 21.4307C25.8838 21.4402 25.9488 21.4497 26.0129 21.4604C26.0225 21.4614 26.0332 21.4626 26.0428 21.4646C26.1174 21.4766 26.1912 21.488 26.2637 21.4988C26.3362 21.5117 26.4078 21.5234 26.4783 21.5352C26.5252 21.5437 26.5722 21.5513 26.6191 21.5598C26.6906 21.5725 26.7621 21.5854 26.8326 21.5994C26.8678 21.6057 26.9031 21.6121 26.9372 21.6184C27.0097 21.6335 27.0791 21.6472 27.1475 21.6611C27.1688 21.6655 27.1892 21.6697 27.2094 21.6741C27.2372 21.6804 27.265 21.687 27.2917 21.6921C27.3045 21.6943 27.3173 21.6975 27.3301 21.7007C27.3696 21.7102 27.4091 21.7188 27.4464 21.7273C27.473 21.7336 27.4986 21.7402 27.5232 21.7454C27.6225 21.771 27.7153 21.7957 27.8028 21.8201C27.8231 21.8264 27.8434 21.833 27.8626 21.8384C27.8787 21.8425 27.8936 21.8479 27.9085 21.8523C27.931 21.8596 27.9523 21.8672 27.9737 21.8735C27.9812 21.8757 27.9886 21.8777 27.9961 21.8811C28.0388 21.896 28.0784 21.9099 28.1156 21.9248C28.1188 21.9258 28.122 21.928 28.1263 21.929C28.1466 21.9375 28.1669 21.946 28.1861 21.9536C28.232 21.9739 28.2726 21.9932 28.3089 22.0134C28.325 22.0229 28.3387 22.0315 28.3527 22.04C28.3974 22.0688 28.4316 22.0977 28.4541 22.1265C28.4615 22.134 28.4669 22.1426 28.4712 22.1499C28.4722 22.1521 28.4733 22.1531 28.4733 22.1543C28.4787 22.1638 28.4829 22.1736 28.4851 22.1841C28.4883 22.1936 28.4893 22.2034 28.4893 22.2129L35.7877 29.511Z" fill="url(#paint_linear_4_442_0)" fill-opacity="1.000000" fill-rule="nonzero"/>
		<path id="Vector" d="M21.5769 23.4248C20.9076 23.4248 20.3649 22.8821 20.3649 22.2129C20.3649 21.5435 20.9076 21.0007 21.5769 21.0007C22.2463 21.0007 28.4888 21.5435 28.4888 22.2129C28.4889 22.8823 22.2463 23.4248 21.5769 23.4248Z" fill="url(#paint_linear_4_443_0)" fill-opacity="1.000000" fill-rule="nonzero"/>
		<path id="Vector" d="M21.577 21.0007C21.577 21.6702 21.0343 22.2129 20.3649 22.2129C19.6955 22.2129 19.1528 21.6702 19.1528 21.0007C19.1528 20.3313 19.6955 10.6555 20.3649 10.6555C21.0343 10.6555 21.577 20.3313 21.577 21.0007Z" fill="url(#paint_linear_4_444_0)" fill-opacity="1.000000" fill-rule="nonzero"/>
		<path id="Vector" d="M22.2131 22.2129C22.2131 23.2336 21.3857 24.061 20.3651 24.061C19.3445 24.061 18.5171 23.2336 18.5171 22.2129C18.5171 21.1924 19.3445 20.365 20.3651 20.365C21.3857 20.365 22.2131 21.1924 22.2131 22.2129Z" fill="url(#paint_linear_4_445_0)" fill-opacity="1.000000" fill-rule="evenodd"/>
		<path id="Vector" d="M19.517 36.8369C18.9908 37.5293 18.7278 38.238 18.7278 38.9629L18.7278 39.1931C19.2665 39.2444 19.8124 39.2717 20.3647 39.2717C24.4141 39.2717 28.1337 37.8606 31.0592 35.5051C31.8789 34.8435 32.6368 34.1079 33.3219 33.3086C33.5988 32.9863 33.8626 32.6528 34.1145 32.3103L27.6173 25.8179C26.6094 24.9189 25.3878 24.4697 23.9526 24.4697C22.598 24.4697 21.4328 24.8689 20.4574 25.667C19.4815 26.4651 18.9939 27.4932 18.9939 28.751C18.9939 29.374 19.1609 29.7915 19.4925 30.0066L23.1736 33.7061L21.4612 34.9526C20.6914 35.5166 20.0431 36.1445 19.517 36.8369Z" fill="url(#paint_linear_4_446_0)" fill-opacity="1.000000" fill-rule="nonzero"/>
		<path id="Vector" d="M18.7279 41.3064L18.7279 38.9629C18.7279 38.238 18.991 37.5295 19.5172 36.8369C20.0432 36.1445 20.6914 35.5164 21.4613 34.9526L23.7834 33.2625C24.5576 32.6992 25.2144 32.0793 25.7549 31.4031C26.295 30.7275 26.5652 30.0513 26.5652 29.375C26.5652 28.6992 26.3434 28.1077 25.9001 27.6006C25.4564 27.0938 24.8075 26.8401 23.9528 26.8401C23.2272 26.8401 22.6383 27.0405 22.1871 27.4407C21.7354 27.8411 21.5098 28.4331 21.5098 29.2175C21.5098 29.4739 21.3847 29.6982 21.1348 29.8901C20.8848 30.0823 20.5581 30.1782 20.1552 30.1782C19.3811 30.1782 18.9941 29.7026 18.9941 28.751C18.9941 27.4932 19.4818 26.4653 20.4576 25.667C21.433 24.8689 22.5982 24.4697 23.9528 24.4697C25.3879 24.4697 26.6096 24.9189 27.6175 25.8176C28.6251 26.7166 29.1293 27.8779 29.1293 29.3027C29.1293 30.2688 28.8592 31.1741 28.319 32.019C27.7785 32.8643 27.1255 33.5806 26.3597 34.1677C25.5935 34.7556 24.8275 35.3105 24.0618 35.8337C23.2957 36.3569 22.6427 36.884 22.1025 37.4153C21.562 37.9465 21.2922 38.4617 21.2922 38.9607L21.2922 39.8779L28.4037 39.8779C28.6294 39.8779 28.8269 39.9868 28.9963 40.2043C29.1657 40.4221 29.2504 40.6846 29.2504 40.9907C29.2504 41.2971 29.1661 41.5674 28.998 41.801C28.8298 42.0349 28.6336 42.1519 28.4095 42.1519L19.857 42.1519C19.6008 42.1519 19.3483 42.0713 19.1004 41.9104C18.8519 41.7493 18.7279 41.5481 18.7279 41.3064Z" fill="url(#paint_linear_4_448_0)" fill-opacity="1.000000" fill-rule="nonzero"/>
		<path id="Vector" d="M29.347 37.2266C29.347 37.0498 29.3954 36.8726 29.4923 36.6953L35.346 25.1704C35.5879 24.7031 35.9586 24.4697 36.4587 24.4697C36.7326 24.4697 37.0151 24.5664 37.3053 24.76C37.5955 24.9536 37.7407 25.1873 37.7407 25.4614C37.7407 25.5581 37.7002 25.6873 37.6196 25.8484L32.6368 35.79L36.1926 35.79L36.1926 32.4329C36.1926 31.865 36.6196 31.5813 37.4746 31.5813C37.8291 31.5813 38.1314 31.6545 38.3817 31.8005C38.6315 31.9463 38.7566 32.1572 38.7566 32.4329L38.7566 35.79L39.9418 35.79C40.2158 35.79 40.4293 35.9099 40.5828 36.1497C40.7358 36.3892 40.8126 36.6685 40.8126 36.9875C40.8126 37.2747 40.7237 37.5422 40.5464 37.7896C40.3689 38.0369 40.1674 38.1606 39.9418 38.1606L38.7565 38.1606L38.7565 41.2998C38.7565 41.5598 38.6273 41.7666 38.3694 41.9209C38.1112 42.075 37.8131 42.1519 37.4744 42.1519C37.1196 42.1519 36.8172 42.0752 36.5673 41.9209C36.3171 41.7666 36.1924 41.5598 36.1924 41.2998L36.1924 38.1606L30.242 38.1606C29.9837 38.1606 29.7703 38.0771 29.6011 37.9094C29.4318 37.7415 29.347 37.5139 29.347 37.2266Z" fill="url(#paint_linear_4_449_0)" fill-opacity="1.000000" fill-rule="nonzero"/>
		<path id="Vector" d="M42.5656 19.2925L40.6101 19.2925L40.5193 19.2925C39.0985 9.44189 30.6025 1.84814 20.3649 1.84814C9.13559 1.84814 0 10.9836 0 22.2129C0 26.8464 1.59818 31.3813 4.50012 34.9824C7.35831 38.5293 11.3639 41.0422 15.7788 42.0588C15.8996 42.0867 16.0204 42.1001 16.1394 42.1001C16.8684 42.1001 17.5276 41.5986 17.6981 40.8579C17.8965 39.9963 17.3589 39.137 16.4971 38.9387C12.7784 38.0825 9.40327 35.9639 6.99326 32.9734C4.51292 29.8955 3.20195 26.1748 3.20195 22.2129C3.20195 12.7493 10.9012 5.05029 20.3649 5.05029C28.8331 5.05029 35.8876 11.2151 37.278 19.2925L35.5893 19.2925C34.3139 19.2925 33.6752 20.8345 34.577 21.7363L38.0652 25.2244C38.6243 25.7834 39.5307 25.7834 40.0898 25.2244L43.578 21.7363C44.4797 20.8345 43.8409 19.2925 42.5656 19.2925Z" fill="url(#paint_linear_4_450_0)" fill-opacity="1.000000" fill-rule="nonzero"/>
	</g>
	<path id="Консультація 24/7" d="M156.066 5.16475Q155.814 5.03906 155.5 5.03906Q155.126 5.03906 154.852 5.20438Q154.806 5.2326 154.762 5.26562Q154.737 5.28407 154.715 5.30468Q154.461 5.53734 154.461 6.04688Q154.461 6.5434 154.709 6.7791Q154.734 6.803 154.762 6.82422Q154.812 6.86271 154.866 6.89478Q155.136 7.05469 155.5 7.05469Q155.806 7.05469 156.052 6.93366Q156.146 6.88767 156.23 6.82422Q156.266 6.7979 156.297 6.76745Q156.539 6.5313 156.539 6.04688Q156.539 5.5493 156.291 5.31575Q156.262 5.28895 156.23 5.26562Q156.152 5.20781 156.066 5.16475ZM67.0703 17L69.25 17L64.4219 11.0938L69.0312 5.57812L66.9844 5.57812L62.375 11.1094L62.375 5.57812L60.5 5.57812L60.5 17L62.375 17L62.375 11.2031L67.0703 17ZM77.9453 14.5703Q78.2266 13.7344 78.2266 12.6562Q78.2266 11.2344 77.7109 10.2344Q77.3486 9.53175 76.7897 9.06439Q76.5531 8.86659 76.2812 8.71094Q76.2375 8.68587 76.1931 8.66201Q75.31 8.1875 74.1719 8.1875Q72.8984 8.1875 71.9766 8.71094Q71.646 8.89863 71.3702 9.14709Q70.8768 9.59154 70.5586 10.2305Q70.0625 11.2266 70.0625 12.6562Q70.0625 13.7344 70.3594 14.5703Q70.6562 15.4062 71.1992 15.9805Q71.4309 16.2255 71.6989 16.4208Q72.0589 16.683 72.4844 16.8555Q73.2266 17.1562 74.1172 17.1562Q75.0703 17.1562 75.8281 16.8555Q76.3443 16.6506 76.759 16.3188Q76.9531 16.1635 77.125 15.9805Q77.6641 15.4062 77.9453 14.5703ZM92.0547 16.6797Q92.9531 17.1562 94.1797 17.1562Q95 17.1562 95.5625 17.0195Q95.9934 16.9148 96.3831 16.7252Q96.5021 16.6673 96.6172 16.6016L96.6172 15.0078Q96.1172 15.2812 95.5547 15.4531Q94.9922 15.625 94.2812 15.625Q93.5625 15.625 93.0703 15.293Q93.0311 15.2665 92.9934 15.238Q92.5582 14.909 92.3281 14.3086Q92.0781 13.6562 92.0781 12.7031Q92.0781 11.7188 92.3242 11.0547Q92.5425 10.4657 92.9636 10.1348Q93.0173 10.0927 93.0742 10.0547Q93.5781 9.71875 94.3359 9.71875Q94.7969 9.71875 95.2969 9.85156Q95.6804 9.95345 96.0502 10.0921Q96.1625 10.1342 96.2734 10.1797L96.8203 8.71094Q96.3828 8.49219 95.7539 8.33984Q95.125 8.1875 94.3516 8.1875Q93.1328 8.1875 92.1914 8.66406Q91.9005 8.81135 91.6487 9.00864Q91.0858 9.44969 90.7188 10.1406Q90.1875 11.1406 90.1875 12.7188Q90.1875 14.2344 90.6719 15.2188Q91.0096 15.905 91.5485 16.3445Q91.7826 16.5354 92.0547 16.6797ZM140.645 8.91406Q139.805 8.1875 138.164 8.1875Q137.289 8.1875 136.48 8.39844Q135.672 8.60938 135.039 8.94531L135.633 10.2422Q136.008 10.0646 136.397 9.92319Q136.607 9.84694 136.82 9.78125Q137.009 9.72322 137.201 9.68315Q137.63 9.59375 138.078 9.59375Q138.823 9.59375 139.239 9.96352Q139.247 9.96999 139.254 9.97656Q139.672 10.3594 139.672 11.2578L139.672 11.7109L138.172 11.7656Q136.156 11.8359 135.16 12.5078Q134.781 12.7638 134.546 13.1162Q134.164 13.6887 134.164 14.5156Q134.164 15.4141 134.516 16Q134.707 16.3196 134.976 16.5497Q135.2 16.7415 135.477 16.8711Q136.086 17.1562 136.859 17.1562Q137.594 17.1562 138.105 17.0039Q138.617 16.8516 139.008 16.5469Q139.398 16.2422 139.766 15.7734L139.828 15.7734L140.18 17L141.484 17L141.484 11.1797Q141.484 9.77025 140.78 9.04221Q140.715 8.97526 140.645 8.91406ZM82.1797 11.8281L82.1797 8.35156L80.3359 8.35156L80.3359 17L82.1797 17L82.1797 13.2656L86.2266 13.2656L86.2266 17L88.0703 17L88.0703 8.35156L86.2266 8.35156L86.2266 11.8281L82.1797 11.8281ZM99.3359 8.35156L97.3359 8.35156L100.789 16.9766L100.484 17.7891Q100.32 18.2422 100.07 18.5977Q99.8737 18.8773 99.6093 19.0578Q99.5376 19.1068 99.4609 19.1484Q99.1016 19.3438 98.6094 19.3438Q98.3438 19.3438 98.0938 19.3125Q97.8438 19.2812 97.6797 19.2422L97.6797 20.7109Q97.8828 20.7578 98.1719 20.8008Q98.4609 20.8438 98.8516 20.8438Q99.6641 20.8438 100.297 20.5352Q100.394 20.488 100.486 20.434Q101.001 20.1352 101.395 19.6289Q101.859 19.0312 102.18 18.1875L105.891 8.35156L103.914 8.35156L102.211 13.2891Q102.031 13.7969 101.887 14.3008Q101.742 14.8047 101.664 15.2109L101.617 15.2109Q101.57 14.8984 101.496 14.5859Q101.422 14.2734 101.324 13.9492Q101.227 13.625 101.109 13.2891L99.3359 8.35156ZM112.469 17L114.32 17L114.32 8.35156L108.492 8.35156Q108.383 9.98438 108.242 11.1992Q108.102 12.4141 107.93 13.2617Q107.758 14.1094 107.547 14.625Q107.336 15.1406 107.09 15.3789Q106.896 15.5667 106.675 15.6065Q106.616 15.6172 106.555 15.6172Q106.391 15.6172 106.234 15.5859Q106.078 15.5547 105.945 15.5078L105.945 16.9531Q106.148 17.0391 106.406 17.082Q106.664 17.125 106.984 17.125Q107.516 17.125 107.934 16.9077Q108.088 16.8279 108.227 16.7188Q108.742 16.3125 109.094 15.4336Q109.445 14.5547 109.68 13.1562Q109.914 11.7578 110.07 9.78906L112.469 9.78906L112.469 17ZM120.938 11.8047L118.789 11.8047L118.789 8.35156L116.945 8.35156L116.945 17L120.945 17Q122.219 17 123.012 16.668Q123.777 16.3477 124.153 15.7729Q124.166 15.7519 124.18 15.7305Q124.201 15.6963 124.221 15.6614Q124.555 15.0787 124.555 14.3047Q124.555 13.4784 124.165 12.9269Q124.161 12.9205 124.156 12.9141Q123.758 12.3594 122.957 12.082Q122.156 11.8047 120.938 11.8047ZM130.266 9.79688L133.109 9.79688L133.109 8.35156L125.609 8.35156L125.609 9.79688L128.438 9.79688L128.438 17L130.266 17L130.266 9.79688ZM151.281 20.0469L152.984 20.0469L152.984 15.5859L151.75 15.5859L151.75 8.35156L149.906 8.35156L149.906 15.5547L145.898 15.5547L145.898 8.35156L144.055 8.35156L144.055 17L151.281 17L151.281 20.0469ZM156.406 17L156.406 8.35156L154.57 8.35156L154.57 17L156.406 17ZM157.852 17L159.898 17L162.008 13.6562L163.75 13.6562L163.75 17L165.586 17L165.586 8.35156L161.664 8.35156Q160.203 8.35156 159.297 9.02344Q158.971 9.26519 158.762 9.58381Q158.391 10.1507 158.391 10.9609Q158.391 11.6875 158.656 12.1914Q158.889 12.6328 159.244 12.9243Q159.295 12.9656 159.348 13.0039Q159.637 13.2133 159.956 13.3525Q160.107 13.4185 160.266 13.4688L157.852 17ZM72.1836 14.2734Q71.9531 13.6016 71.9531 12.6562Q71.9531 11.2266 72.4766 10.4609Q72.619 10.2526 72.8071 10.101Q73.3103 9.69531 74.1406 9.69531Q74.9141 9.69531 75.3984 10.043Q75.4464 10.0774 75.4917 10.1148Q75.9052 10.4559 76.1094 11.0508Q76.3359 11.7109 76.3359 12.6562Q76.3359 13.6016 76.1094 14.2734Q75.8997 14.8953 75.4691 15.2461Q75.4345 15.2743 75.3984 15.3008Q74.9141 15.6562 74.1484 15.6562Q73.3828 15.6562 72.8984 15.3008Q72.8675 15.2781 72.8376 15.2541Q72.3993 14.9024 72.1836 14.2734ZM160.369 11.6562Q160.188 11.3746 160.188 10.9766Q160.188 10.6873 160.299 10.4502Q160.392 10.2518 160.562 10.0898Q160.938 9.73438 161.758 9.73438L163.75 9.73438L163.75 12.3125L162.023 12.3125Q161.172 12.3125 160.68 11.9727Q160.486 11.8389 160.369 11.6562ZM138.547 12.9062L139.664 12.8672L139.664 13.6172Q139.664 14.4831 139.24 15.0041Q139.148 15.1176 139.035 15.2148Q138.892 15.3383 138.732 15.4336Q138.19 15.7578 137.453 15.7578Q136.828 15.7578 136.445 15.4648Q136.381 15.4159 136.328 15.3572Q136.062 15.0648 136.062 14.5312Q136.062 14.1155 136.24 13.7998Q136.377 13.558 136.617 13.375Q137.172 12.9531 138.547 12.9062ZM122.507 13.6689Q122.711 13.9303 122.711 14.3516Q122.711 14.8041 122.493 15.0895Q122.375 15.2426 122.195 15.3477Q121.68 15.6484 120.859 15.6484L118.789 15.6484L118.789 13.1641L120.844 13.1641Q121.742 13.1641 122.227 13.4336Q122.396 13.528 122.507 13.6689ZM59.6406 39L67.625 39L67.625 36.9688L62.6484 36.9688L62.6484 36.8594L64.1172 35.4766Q65.125 34.5469 65.8398 33.7812Q66.5547 33.0156 66.9297 32.2344Q66.9576 32.1763 66.9834 32.1173Q67.3047 31.3829 67.3047 30.5078Q67.3047 29.8722 67.0779 29.3318Q66.9897 29.1216 66.8672 28.9258Q66.784 28.7929 66.6874 28.6705Q66.276 28.1493 65.6211 27.8203Q64.8125 27.4141 63.6875 27.4141Q62.6641 27.4141 61.9336 27.6445Q61.2031 27.875 60.6523 28.25Q60.1016 28.625 59.6094 29.0469L60.9219 30.6016Q61.6016 30.0391 62.2266 29.7344Q62.6797 29.5134 63.1535 29.4527Q63.3331 29.4297 63.5156 29.4297Q64.0806 29.4297 64.4432 29.7006Q64.4867 29.7331 64.5273 29.7695Q64.5684 29.8064 64.605 29.8472Q64.9062 30.183 64.9062 30.7891Q64.9062 31.1495 64.8084 31.4811Q64.7536 31.667 64.668 31.8438Q64.4297 32.3359 63.9023 32.9336Q63.375 33.5312 62.5078 34.4219L59.6406 37.3203L59.6406 39ZM75.6562 36.6328L77.0312 36.6328L77.0312 34.7578L75.6562 34.7578L75.6562 27.5781L73.4297 27.5781L68.4219 34.9531L68.4219 36.6328L73.2969 36.6328L73.2969 39L75.6562 39L75.6562 36.6328ZM79.5703 39L83.8281 27.5781L81.6641 27.5781L77.4062 39L79.5703 39ZM89.9688 29.6094L85.6797 39L88.2109 39L92.5312 29.0938L92.5312 27.5781L84.3359 27.5781L84.3359 29.6094L89.9688 29.6094ZM73.2969 32.8203L73.2969 34.7578L70.5469 34.7578L72.6406 31.5938Q72.8594 31.2656 73.0234 30.9648Q73.1875 30.6641 73.3359 30.3438L73.3984 30.3438L73.3711 30.7539Q73.3516 31.0469 73.3359 31.4219Q73.3203 31.7969 73.3086 32.1719Q73.2969 32.5469 73.2969 32.8203Z" fill="#01476A" fill-opacity="1.000000" fill-rule="evenodd"/>
</svg>
