<svg width="18.639893" height="19.999725" viewBox="0 0 18.6399 19.9997" fill="none" xmlns="http://www.w3.org/2000/svg" xmlns:xlink="http://www.w3.org/1999/xlink">
	<desc>
			Created with Pixso.
	</desc>
	<defs/>
	<path id="Vector" d="M16.552 13.9201C15.344 12.8867 14.1177 12.2608 12.9243 13.2926L12.2119 13.9162C11.6904 14.3689 10.7209 16.484 6.97314 12.1726C3.22607 7.86664 5.45581 7.1962 5.97803 6.74744L6.69458 6.12305C7.88159 5.0889 7.43359 3.78705 6.57739 2.44693L6.06079 1.63522C5.20068 0.298248 4.26416 -0.579803 3.07373 0.452789L2.43066 1.01474C1.90479 1.39798 0.434326 2.64362 0.0776367 5.01007C-0.351807 7.84949 1.00244 11.101 4.10498 14.6686C7.20337 18.2378 10.2371 20.0305 13.1108 19.9993C15.4993 19.9736 16.9417 18.692 17.3926 18.2261L18.0381 17.6633C19.2253 16.6315 18.4878 15.581 17.2788 14.5453L16.552 13.9201Z" fill="#FFFFFF" fill-opacity="1.000000" fill-rule="nonzero"/>
</svg>
